<svg xmlns="http://www.w3.org/2000/svg" viewBox="0 0 563.52 132.76"><defs><style>.cls-1{fill:#fff;}</style></defs><title>Asset 15</title><g id="Layer_2" data-name="Layer 2"><g id="Layer_1-2" data-name="Layer 1"><polygon class="cls-1" points="0.4 132.57 5.51 132.57 5.51 106.64 25.7 106.64 25.7 132.57 30.81 132.57 30.81 106.64 50.99 106.64 50.99 132.57 56.11 132.57 56.11 100.91 0.4 100.91 0.4 132.57"/><rect class="cls-1" x="75.9" y="100.67" width="30.41" height="0.25"/><polygon class="cls-1" points="126.5 126.79 106.31 126.79 106.31 100.91 75.9 100.91 75.9 132.57 81.01 132.57 81.01 106.63 101.2 106.63 101.2 132.76 129.11 132.76 129.11 132.57 131.61 132.57 131.61 100.91 126.5 100.91 126.5 126.79"/><path class="cls-1" d="M5.12,67.68H25.64l.06,27.59h5.11l-.07-32H15.27l-.2-.15-.21.15H5.12V52.48l.1-.08L66,7.43l60.46,44.7V63.26h5.11V48.49L66,0,.14,48.74v3.71l-.14.1V95.48l5.12-.21ZM129.05,50.31l.06,0v0h-.06Z"/><rect class="cls-1" x="63.33" y="100.91" width="5.12" height="31.66"/><path class="cls-1" d="M97,63.26H35.44v32H97ZM91.84,90.9H40.16V67.68H91.84Z"/><rect class="cls-1" x="113.22" y="74.32" width="31.66" height="5.12" transform="translate(-10.74 131.87) rotate(-52.26)"/><path class="cls-1" d="M195.52,80c0,11.58-7.58,19.67-18.64,19.67-7,0-12.33-3.19-15.23-8.61v22.8h-5.79V60.35h5.79v8.46c2.9-5.49,8.25-8.69,15.08-8.69C187.79,60.12,195.52,68.29,195.52,80Zm-5.87-.15c0-8.4-5.79-14.56-14-14.56s-14,6.09-14,14.56,5.8,14.55,14,14.55S189.65,88.34,189.65,79.88Z"/><path class="cls-1" d="M211.48,69c2.6-5.71,7.42-8.83,14-8.91V66c-8.24-.15-13.36,5-14,12.7V99.48h-5.79V60.35h5.79Z"/><path class="cls-1" d="M269,79.88c0,11.73-8.25,19.82-19.83,19.82s-19.83-8.09-19.83-19.82S237.61,60.2,249.2,60.2,269,68.22,269,79.88ZM235.16,80c0,8.62,5.87,14.56,14,14.56s14-5.94,14-14.56-5.86-14.48-14-14.48S235.16,71.41,235.16,80Z"/><path class="cls-1" d="M319.22,80c0,11.58-7.57,19.67-18.64,19.67-7,0-12.32-3.19-15.22-8.61v22.8h-5.79V60.35h5.79v8.46c2.9-5.49,8.24-8.69,15.08-8.69C311.5,60.12,319.22,68.29,319.22,80Zm-5.86-.15c0-8.4-5.8-14.56-14-14.56s-14,6.09-14,14.56,5.79,14.55,14,14.55S313.36,88.34,313.36,79.88Z"/><path class="cls-1" d="M363.11,82.18H331.17c1,7.65,6.61,12.47,14.19,12.47a16.3,16.3,0,0,0,12.1-4.9l3.2,3.42c-3.72,4.16-9.21,6.53-15.75,6.53-11.51,0-19.45-8.09-19.45-19.75s8-19.75,19.38-19.75C357.46,60.12,363.7,68.89,363.11,82.18Zm-5.2-4.75c-.37-7.5-5.42-12.26-13.07-12.26-7.43,0-12.78,4.83-13.67,12.26Z"/><path class="cls-1" d="M378.85,69c2.59-5.71,7.42-8.83,14-8.91V66c-8.24-.15-13.37,5-14,12.7V99.48h-5.8V60.35h5.8Z"/><path class="cls-1" d="M420.87,96.81a16.42,16.42,0,0,1-8.83,3c-5.72,0-10-3.42-10-11.14V66.29h-5.65V61.61h5.65V51.29h5.71V61.61l12.41-.08v4.76H407.8V87.6c0,4.75,1.86,6.53,5.2,6.53a11.79,11.79,0,0,0,6.24-2Z"/><path class="cls-1" d="M442.11,105.05c-2.45,6-6.54,9.13-11.73,9.13a12.43,12.43,0,0,1-8.25-2.89l2.45-4.83a9.29,9.29,0,0,0,5.5,1.86c3,0,5.57-1.86,7.13-5.5l1.63-3.64L422.65,60.35h6.09l13,32.3,12.4-32.3h5.94Z"/><path class="cls-1" d="M469.88,96.21a3.61,3.61,0,1,1-3.56-3.86A3.65,3.65,0,0,1,469.88,96.21Z"/><path class="cls-1" d="M516.52,75.35V99.48h-5.8V76.91c0-6.91-4.16-11-11.06-11-7.73.07-12.48,5.12-13.15,12.55v21h-5.79V60.35h5.79V69c2.75-5.94,8-8.76,15.15-8.84C511,60.12,516.52,65.92,516.52,75.35Z"/><path class="cls-1" d="M563.52,95.4c0,11.43-7.8,18.64-19.68,18.64a26.32,26.32,0,0,1-16-5.65l2.67-4.45a20.05,20.05,0,0,0,13.15,5c8.54,0,14.1-5.2,14.1-13.36v-6c-2.74,5.2-7.79,8.17-14.4,8.17-10.55,0-17.82-7.79-17.82-18.93,0-10.92,7.2-18.64,17.67-18.72,6.68,0,11.73,3,14.55,8.17V60.35h5.8Zm-5.8-16.34c0-8.17-5.56-13.89-13.36-13.89S531,71,530.92,79.06s5.57,13.81,13.44,13.81S557.72,87.08,557.72,79.06Z"/></g></g></svg>