<svg xmlns="http://www.w3.org/2000/svg" viewBox="0 0 1020.67 1020.67"><defs><style>.cls-1{fill:#fff;}</style></defs><title>Asset 13</title><g id="Layer_2" data-name="Layer 2"><g id="Layer_1-2" data-name="Layer 1"><rect class="cls-1" width="1020.67" height="1020.67"/><polygon points="229.53 572.98 234.64 572.98 234.64 547.04 254.83 547.04 254.83 572.98 259.94 572.98 259.94 547.04 280.13 547.04 280.13 572.98 285.24 572.98 285.24 541.32 229.53 541.32 229.53 572.98"/><rect x="305.03" y="541.08" width="30.41" height="0.25"/><polygon points="355.63 567.2 335.44 567.2 335.44 541.32 305.03 541.32 305.03 572.98 310.14 572.98 310.14 547.04 330.33 547.04 330.33 573.17 358.24 573.17 358.24 572.98 360.74 572.98 360.74 541.32 355.63 541.32 355.63 567.2"/><path d="M234.25,508.09h20.52l.06,27.59h5.11l-.06-32H244.4l-.2-.15-.21.15h-9.74V492.89l.11-.08,60.81-45,60.46,44.7v11.13h5.11V488.9l-65.57-48.49-65.9,48.74v3.71l-.14.1v42.93l5.12-.21Zm123.93-17.37.06,0v0h-.06Z"/><rect x="292.46" y="541.32" width="5.12" height="31.66"/><path d="M326.09,503.67H264.57v32h61.52ZM321,531.31H269.29V508.09H321Z"/><rect x="342.35" y="514.73" width="31.66" height="5.12" transform="translate(-270.12 483.89) rotate(-52.26)"/><path d="M424.65,520.44c0,11.58-7.58,19.67-18.64,19.67-7,0-12.33-3.19-15.23-8.61v22.8H385V500.76h5.79v8.46c2.9-5.49,8.25-8.69,15.08-8.69C416.92,500.53,424.65,508.7,424.65,520.44Zm-5.87-.15c0-8.4-5.79-14.56-14-14.56s-14,6.09-14,14.56,5.8,14.55,14,14.55S418.78,528.75,418.78,520.29Z"/><path d="M440.61,509.44c2.6-5.71,7.43-8.83,14-8.91v5.87c-8.24-.15-13.36,5-14,12.7v20.79h-5.79V500.76h5.79Z"/><path d="M498.16,520.29c0,11.73-8.24,19.82-19.83,19.82S458.5,532,458.5,520.29s8.25-19.68,19.83-19.68S498.16,508.63,498.16,520.29Zm-33.86.07c0,8.62,5.86,14.56,14,14.56s14-5.94,14-14.56-5.87-14.48-14-14.48S464.3,511.82,464.3,520.36Z"/><path d="M548.35,520.44c0,11.58-7.57,19.67-18.63,19.67-7,0-12.33-3.19-15.23-8.61v22.8H508.7V500.76h5.79v8.46c2.9-5.49,8.24-8.69,15.08-8.69C540.63,500.53,548.35,508.7,548.35,520.44Zm-5.86-.15c0-8.4-5.79-14.56-14-14.56s-14,6.09-14,14.56,5.79,14.55,14,14.55S542.49,528.75,542.49,520.29Z"/><path d="M592.24,522.59H560.3c1,7.65,6.61,12.47,14.19,12.47a16.29,16.29,0,0,0,12.1-4.9l3.2,3.42c-3.72,4.16-9.21,6.53-15.75,6.53-11.51,0-19.45-8.09-19.45-19.75s8-19.75,19.38-19.75C586.59,500.53,592.83,509.3,592.24,522.59Zm-5.2-4.75c-.37-7.5-5.42-12.26-13.07-12.26-7.43,0-12.77,4.83-13.67,12.26Z"/><path d="M608,509.44c2.6-5.71,7.42-8.83,14-8.91v5.87c-8.24-.15-13.36,5-14,12.7v20.79h-5.8V500.76H608Z"/><path d="M650,537.22a16.48,16.48,0,0,1-8.84,3c-5.72,0-9.95-3.42-9.95-11.14V506.7h-5.65V502h5.65V491.7h5.72V502l12.4-.08v4.76h-12.4V528c0,4.75,1.85,6.53,5.19,6.53a11.79,11.79,0,0,0,6.24-2Z"/><path d="M671.24,545.46c-2.45,6-6.53,9.13-11.73,9.13a12.39,12.39,0,0,1-8.24-2.89l2.45-4.83a9.24,9.24,0,0,0,5.49,1.86c3,0,5.57-1.86,7.13-5.5l1.63-3.64-16.19-38.83h6.09l13,32.3,12.4-32.3h5.94Z"/><path d="M699,536.62a3.61,3.61,0,1,1-3.56-3.86A3.65,3.65,0,0,1,699,536.62Z"/><path d="M745.65,515.76v24.13h-5.8V517.32c0-6.91-4.15-11-11.06-11-7.72.07-12.48,5.12-13.15,12.55v21h-5.79V500.76h5.79v8.61c2.75-5.94,8-8.76,15.15-8.84C740.15,500.53,745.65,506.33,745.65,515.76Z"/><path d="M792.65,535.81c0,11.43-7.8,18.64-19.68,18.64a26.34,26.34,0,0,1-16-5.65l2.67-4.45a20.05,20.05,0,0,0,13.15,5c8.54,0,14.11-5.2,14.11-13.36v-6c-2.75,5.2-7.8,8.17-14.41,8.17-10.55,0-17.82-7.79-17.82-18.93,0-10.92,7.2-18.64,17.67-18.72,6.68,0,11.73,3,14.56,8.17v-7.94h5.79Zm-5.79-16.34c0-8.17-5.57-13.89-13.37-13.89s-13.37,5.79-13.44,13.89,5.57,13.81,13.44,13.81S786.86,527.49,786.86,519.47Z"/></g></g></svg>